<svg width="113" height="84" viewBox="0 0 113 84" fill="none" xmlns="http://www.w3.org/2000/svg">
<path d="M109.671 24.3335H48.053C47.1856 24.3343 46.354 24.6896 45.7407 25.3213C45.1274 25.953 44.7825 26.8095 44.7817 27.7029V37.9883C44.7825 38.8816 45.1274 39.7382 45.7407 40.3699C46.354 41.0016 47.1856 41.3568 48.053 41.3576H109.671C110.538 41.3568 111.37 41.0016 111.983 40.3699C112.596 39.7382 112.941 38.8816 112.942 37.9883V27.7029C112.941 26.8095 112.596 25.953 111.983 25.3213C111.37 24.6896 110.538 24.3343 109.671 24.3335Z" fill="#F7E5B7"/>
<path d="M25.1069 83.0357H0.592599C0.540586 83.0357 0.4907 83.0145 0.453922 82.9767C0.417143 82.939 0.396484 82.8878 0.396484 82.8344C0.396484 82.781 0.417143 82.7299 0.453922 82.6921C0.4907 82.6544 0.540586 82.6332 0.592599 82.6332H25.1069C25.1589 82.6332 25.2088 82.6544 25.2456 82.6921C25.2824 82.7299 25.303 82.781 25.303 82.8344C25.303 82.8878 25.2824 82.939 25.2456 82.9767C25.2088 83.0145 25.1589 83.0357 25.1069 83.0357Z" fill="#7E7E7E"/>
<path d="M21.5075 19.7916C21.2802 19.9394 21.0871 20.1367 20.9418 20.3697C20.7965 20.6027 20.7026 20.8657 20.6666 21.1401C20.6307 21.4145 20.6536 21.6937 20.7338 21.958C20.8139 22.2223 20.9494 22.4653 21.1306 22.6699L19.3484 26.5898L21.397 28.2863L23.8383 22.7143C24.1517 22.3779 24.3346 21.9349 24.3521 21.469C24.3696 21.0032 24.2206 20.5469 23.9333 20.1866C23.646 19.8263 23.2404 19.5871 22.7933 19.5143C22.3462 19.4415 21.8887 19.5402 21.5075 19.7916Z" fill="white"/>
<path d="M11.2659 21.3811C11.8299 21.0322 12.5027 20.9202 13.1447 21.0685C13.7868 21.2167 14.3488 21.6138 14.7142 22.1773L18.3609 27.8014L19.6269 24.9267C19.706 24.7472 19.846 24.6036 20.0206 24.5231C20.1953 24.4425 20.3925 24.4305 20.5752 24.4892L22.486 25.104C22.5858 25.1361 22.6784 25.1885 22.7583 25.258C22.8382 25.3275 22.9038 25.4128 22.9512 25.5088C22.9987 25.6048 23.027 25.7096 23.0345 25.817C23.0421 25.9245 23.0287 26.0324 22.9951 26.1344L21.6871 30.1126C21.5216 30.6158 21.2452 31.0727 20.8795 31.4474C20.5137 31.822 20.0686 32.1043 19.5792 32.272C19.0897 32.4396 18.5692 32.4882 18.0584 32.4138C17.5477 32.3394 17.0606 32.1441 16.6355 31.8432C16.4368 31.7026 16.2535 31.5402 16.0888 31.359L10.7148 25.4447C10.4538 25.1575 10.2586 24.8138 10.1432 24.4388C10.0279 24.0638 9.99547 23.6669 10.0483 23.2774C10.1011 22.8878 10.2379 22.5153 10.4486 22.1872C10.6593 21.8591 10.9385 21.5837 11.2659 21.3811Z" fill="#F7E5B7"/>
<path d="M23.0634 15.5706C23.1613 15.5731 23.2542 15.6155 23.3217 15.6886C23.3892 15.7616 23.4257 15.8593 23.4233 15.9601L23.3918 17.2656L23.4554 17.2715L23.4326 18.1582L23.3705 18.1502L23.2577 22.8269C23.2539 22.9869 23.1936 23.1401 23.0882 23.2578C22.9827 23.3754 22.8393 23.4495 22.6847 23.4663L19.7976 23.7794C19.7273 23.787 19.6562 23.7787 19.5894 23.755C19.5225 23.7314 19.4615 23.693 19.4106 23.6424C19.3597 23.5919 19.3201 23.5306 19.2947 23.4626C19.2692 23.3947 19.2585 23.3219 19.2633 23.2492L19.7012 16.59C19.7104 16.4501 19.7655 16.3176 19.8575 16.2143C19.9495 16.111 20.0729 16.0429 20.2074 16.0214L22.9946 15.5754C23.0173 15.5716 23.0404 15.57 23.0634 15.5706Z" fill="#7E7E7E"/>
<path d="M20.8291 16.2644L22.2944 16.0299C22.3207 16.0257 22.345 16.0127 22.3635 15.9928C22.3819 15.9729 22.3935 15.9473 22.3964 15.92C22.3997 15.8891 22.4128 15.8601 22.4337 15.8376C22.4545 15.8151 22.482 15.8003 22.5119 15.7955L22.8206 15.7461C22.8627 15.7394 22.9057 15.7422 22.9466 15.7545C22.9876 15.7668 23.0254 15.7881 23.0574 15.8171C23.0894 15.846 23.1149 15.8819 23.132 15.9221C23.1491 15.9623 23.1575 16.0059 23.1564 16.0498L22.9978 22.8302C22.9958 22.9143 22.9639 22.9948 22.908 23.0562C22.8521 23.1176 22.7762 23.1556 22.6948 23.1631L19.8098 23.4273C19.773 23.4307 19.7359 23.4258 19.7011 23.4131C19.6663 23.4003 19.6345 23.38 19.608 23.3535C19.5815 23.3269 19.5609 23.2948 19.5476 23.2593C19.5342 23.2239 19.5285 23.1858 19.5307 23.1478L19.92 16.5501C19.9258 16.4529 19.9636 16.3606 20.0273 16.2886C20.0909 16.2166 20.1766 16.1692 20.27 16.1542L20.5954 16.1022C20.6073 16.1546 20.638 16.2004 20.6814 16.2305C20.7247 16.2605 20.7775 16.2727 20.8291 16.2644Z" fill="white"/>
<path d="M14.0298 80.5859L16.2718 80.5857L17.3381 71.6785L14.0291 71.6789L14.0298 80.5859Z" fill="white"/>
<path d="M20.5969 82.7292L13.5506 82.7298L13.5503 79.9257L17.8742 79.9253C18.2317 79.9253 18.5858 79.9978 18.9161 80.1387C19.2464 80.2796 19.5465 80.4861 19.7994 80.7465C20.0522 81.0068 20.2527 81.3159 20.3896 81.6561C20.5264 81.9963 20.5969 82.3609 20.5969 82.7292Z" fill="#030303"/>
<path d="M7.14092 80.5859L9.3829 80.5857L10.4492 71.6785L7.14014 71.6789L7.14092 80.5859Z" fill="white"/>
<path d="M13.7056 82.7292L6.65922 82.7298L6.65898 79.9257L10.9829 79.9253C11.7049 79.9253 12.3974 80.2206 12.908 80.7465C13.4186 81.2723 13.7055 81.9855 13.7056 82.7292Z" fill="#030303"/>
<path d="M13.7062 18.355C16.3664 18.355 18.523 16.1337 18.523 13.3937C18.523 10.6537 16.3664 8.4325 13.7062 8.4325C11.0459 8.4325 8.8894 10.6537 8.8894 13.3937C8.8894 16.1337 11.0459 18.355 13.7062 18.355Z" fill="white"/>
<path d="M16.1848 26.6668C16.1454 25.3912 15.7968 24.1461 15.1706 23.0449C14.5445 21.9437 13.6607 21.0214 12.5999 20.362C11.3555 19.6067 9.99335 19.3122 8.90969 20.4283C8.25899 21.1154 7.73789 21.9209 7.37294 22.804C6.37051 25.2106 6.30493 27.922 7.18977 30.377L9.76897 37.7163L15.7385 38.3824C15.8507 38.3949 15.9641 38.3823 16.0711 38.3456C16.1781 38.3089 16.2761 38.2488 16.3586 38.1695C16.441 38.0902 16.5058 37.9935 16.5487 37.8861C16.5915 37.7786 16.6114 37.6629 16.6069 37.5468L16.1848 26.6668Z" fill="#6318AF"/>
<path d="M10.1475 36.813C10.1475 36.813 5.68756 38.5279 6.8536 45.7894C7.89993 52.3055 7.06842 73.9335 6.88668 78.3054C6.87803 78.5138 6.94802 78.7175 7.08198 78.8739C7.21595 79.0303 7.40349 79.1273 7.6053 79.1444L10.2087 79.3678C10.4126 79.3853 10.6151 79.3201 10.773 79.186C10.9308 79.0519 11.0316 78.8596 11.0537 78.6501L12.3983 65.9297C12.4035 65.8797 12.4267 65.8336 12.4632 65.8003C12.4997 65.767 12.5469 65.7489 12.5956 65.7495C12.6444 65.7501 12.6911 65.7694 12.7268 65.8036C12.7625 65.8379 12.7846 65.8845 12.7887 65.9346L13.7905 78.1746C13.8074 78.3808 13.9005 78.5725 14.0505 78.7101C14.2006 78.8477 14.3962 78.9208 14.597 78.9143L16.7837 78.843C16.8868 78.8397 16.9882 78.8154 17.0821 78.7717C17.1761 78.7279 17.2607 78.6655 17.3312 78.588C17.4017 78.5106 17.4567 78.4195 17.4931 78.3202C17.5294 78.2208 17.5464 78.115 17.543 78.0089L16.2549 37.6612L10.1475 36.813Z" fill="#6318AF"/>
<path d="M14.6732 13.067C16.2841 13.7475 18.3414 12.9526 19.1202 11.3486C19.8991 9.74465 19.2827 7.57236 17.7878 6.65288C16.2929 5.7334 14.1438 6.2047 13.1422 7.67166C12.3275 6.1598 10.1931 5.77436 8.72763 6.61796C7.26218 7.46155 6.46396 9.22854 6.36928 10.9549C6.27461 12.6813 6.78419 14.3821 7.40582 15.9883C8.41133 18.5865 11.6484 19.9855 14.1528 18.9042C13.0063 17.1453 13.2326 14.5715 14.6732 13.067Z" fill="#030303"/>
<path d="M21.1649 20.3922C21.122 20.3923 21.0803 20.378 21.046 20.3515L21.0438 20.3499L20.596 19.997C20.5753 19.9806 20.5579 19.9602 20.5448 19.9369C20.5317 19.9136 20.5232 19.8879 20.5198 19.8612C20.5164 19.8345 20.5181 19.8074 20.5248 19.7813C20.5316 19.7553 20.5432 19.731 20.5591 19.7096C20.575 19.6882 20.5949 19.6703 20.6175 19.6568C20.6401 19.6434 20.6651 19.6346 20.691 19.6311C20.7169 19.6276 20.7433 19.6293 20.7685 19.6363C20.7938 19.6432 20.8174 19.6553 20.8382 19.6716L21.1283 19.9008L21.8137 18.9797C21.8296 18.9583 21.8494 18.9404 21.8721 18.9269C21.8947 18.9134 21.9197 18.9047 21.9456 18.9012C21.9715 18.8977 21.9978 18.8994 22.023 18.9064C22.0482 18.9133 22.0719 18.9253 22.0926 18.9417C22.1345 18.9748 22.162 19.0237 22.1689 19.0776C22.1758 19.1314 22.1617 19.1859 22.1296 19.2291L21.3233 20.312C21.3047 20.337 21.2807 20.3572 21.2533 20.371C21.2258 20.3849 21.1956 20.392 21.165 20.392L21.1649 20.3922Z" fill="#F7E5B7"/>
<path d="M109.729 -0.000183105H48.1108C47.2435 0.000626124 46.4119 0.355873 45.7986 0.987575C45.1853 1.61928 44.8404 2.47581 44.8396 3.36917V13.6546C44.8404 14.5479 45.1853 15.4045 45.7986 16.0362C46.4119 16.6679 47.2435 17.0231 48.1108 17.0239H109.729C110.596 17.0231 111.428 16.6679 112.041 16.0362C112.654 15.4045 112.999 14.5479 113 13.6546V3.36917C112.999 2.47581 112.654 1.61927 112.041 0.987572C111.428 0.355871 110.596 0.000626123 109.729 -0.000183105ZM112.656 13.6546C112.655 14.4538 112.346 15.2199 111.797 15.785C111.249 16.3502 110.505 16.6681 109.729 16.6693H48.1108C47.3349 16.6681 46.5911 16.3502 46.0424 15.785C45.4938 15.2199 45.185 14.4538 45.1839 13.6546V3.36917C45.185 2.56998 45.4938 1.80384 46.0424 1.23872C46.5911 0.673598 47.3349 0.355616 48.1108 0.354484H109.729C110.505 0.355616 111.249 0.673598 111.797 1.23872C112.346 1.80384 112.655 2.56998 112.656 3.36917V13.6546Z" fill="#7E7E7E"/>
<path d="M60.65 14.376C59.5239 14.376 58.4231 14.0321 57.4868 13.3877C56.5504 12.7433 55.8207 11.8274 55.3897 10.7559C54.9588 9.68428 54.846 8.50514 55.0657 7.36756C55.2854 6.22997 55.8276 5.18503 56.6239 4.36488C57.4202 3.54472 58.4347 2.98619 59.5392 2.75991C60.6436 2.53362 61.7884 2.64976 62.8288 3.09362C63.8692 3.53748 64.7584 4.28913 65.384 5.25353C66.0096 6.21793 66.3436 7.35175 66.3436 8.51162C66.3419 10.0664 65.7415 11.557 64.6741 12.6564C63.6067 13.7558 62.1595 14.3742 60.65 14.376Z" fill="#6318AF"/>
<path d="M101.322 13.2998H71.7279C71.3626 13.2998 71.0123 13.1503 70.754 12.8842C70.4957 12.6182 70.3506 12.2573 70.3506 11.8811C70.3506 11.5048 70.4957 11.144 70.754 10.8779C71.0123 10.6119 71.3626 10.4624 71.7279 10.4624H101.322C101.687 10.4624 102.038 10.6119 102.296 10.8779C102.554 11.144 102.699 11.5048 102.699 11.8811C102.699 12.2573 102.554 12.6182 102.296 12.8842C102.038 13.1503 101.687 13.2998 101.322 13.2998Z" fill="#F7E5B7"/>
<path d="M81.5224 7.27058H71.7279C71.3626 7.27058 71.0123 7.12111 70.754 6.85506C70.4957 6.58901 70.3506 6.22816 70.3506 5.8519C70.3506 5.47565 70.4957 5.11481 70.754 4.84875C71.0123 4.5827 71.3626 4.43323 71.7279 4.43323H81.5224C81.8877 4.43323 82.2381 4.5827 82.4964 4.84875C82.7547 5.11481 82.8998 5.47565 82.8998 5.8519C82.8998 6.22816 82.7547 6.58901 82.4964 6.85506C82.2381 7.12111 81.8877 7.27058 81.5224 7.27058Z" fill="#F7E5B7"/>
<path d="M60.3585 10.5751C60.2172 10.5754 60.0797 10.5283 59.9667 10.441L59.9597 10.4356L58.484 9.27285C58.4155 9.21894 58.3579 9.15165 58.3147 9.07482C58.2715 8.998 58.2434 8.91315 58.232 8.82513C58.2207 8.73711 58.2263 8.64764 58.2485 8.56186C58.2708 8.47607 58.3092 8.39564 58.3617 8.32517C58.4141 8.2547 58.4795 8.19558 58.5542 8.15118C58.6289 8.10678 58.7113 8.07797 58.7968 8.06642C58.8822 8.05486 58.9691 8.06078 59.0523 8.08382C59.1356 8.10687 59.2136 8.1466 59.2819 8.20074L60.2378 8.95571L62.4965 5.92058C62.5489 5.85021 62.6142 5.79116 62.6888 5.74679C62.7633 5.70243 62.8456 5.67361 62.9309 5.662C63.0163 5.65039 63.103 5.65621 63.1862 5.67912C63.2693 5.70203 63.3473 5.7416 63.4156 5.79554L63.4158 5.79569L63.4018 5.81574L63.4162 5.79569C63.554 5.9048 63.6442 6.06576 63.6669 6.24327C63.6896 6.42078 63.6431 6.60033 63.5374 6.74251L60.8807 10.3109C60.8192 10.3931 60.7402 10.4596 60.6497 10.5053C60.5593 10.551 60.4598 10.5746 60.3591 10.5743L60.3585 10.5751Z" fill="white"/>
<path d="M83.2534 27.6737H21.6355C20.7682 27.6745 19.9366 28.0298 19.3232 28.6615C18.7099 29.2932 18.365 30.1497 18.3643 31.0431V41.3285C18.365 42.2218 18.7099 43.0784 19.3232 43.7101C19.9366 44.3418 20.7682 44.697 21.6355 44.6978H83.2534C84.1208 44.697 84.9524 44.3418 85.5657 43.7101C86.179 43.0784 86.5239 42.2218 86.5247 41.3285V31.0431C86.5239 30.1497 86.179 29.2932 85.5657 28.6615C84.9524 28.0298 84.1208 27.6745 83.2534 27.6737Z" fill="white"/>
<path d="M83.2534 27.6737H21.6355C20.7682 27.6745 19.9366 28.0298 19.3232 28.6615C18.7099 29.2932 18.365 30.1497 18.3643 31.0431V41.3285C18.365 42.2218 18.7099 43.0784 19.3232 43.7101C19.9366 44.3418 20.7682 44.697 21.6355 44.6978H83.2534C84.1208 44.697 84.9524 44.3418 85.5657 43.7101C86.179 43.0784 86.5239 42.2218 86.5247 41.3285V31.0431C86.5239 30.1497 86.179 29.2932 85.5657 28.6615C84.9524 28.0298 84.1208 27.6745 83.2534 27.6737ZM86.1803 41.3285C86.1792 42.1277 85.8705 42.8938 85.3218 43.4589C84.7732 44.024 84.0293 44.342 83.2534 44.3431H21.6355C20.8596 44.342 20.1157 44.024 19.5671 43.4589C19.0184 42.8938 18.7097 42.1277 18.7086 41.3285V31.0431C18.7097 30.2439 19.0184 29.4777 19.5671 28.9126C20.1157 28.3475 20.8596 28.0295 21.6355 28.0284H83.2534C84.0293 28.0295 84.7732 28.3475 85.3218 28.9126C85.8705 29.4777 86.1792 30.2439 86.1803 31.0431V41.3285Z" fill="#7E7E7E"/>
<path d="M34.1746 42.05C33.0485 42.05 31.9477 41.706 31.0114 41.0617C30.0751 40.4173 29.3453 39.5014 28.9144 38.4298C28.4834 37.3582 28.3707 36.1791 28.5904 35.0415C28.81 33.9039 29.3523 32.859 30.1486 32.0388C30.9448 31.2187 31.9594 30.6601 33.0638 30.4339C34.1683 30.2076 35.3131 30.3237 36.3535 30.7676C37.3938 31.2114 38.2831 31.9631 38.9087 32.9275C39.5343 33.8919 39.8682 35.0257 39.8682 36.1856C39.8665 37.7404 39.2661 39.231 38.1987 40.3304C37.1314 41.4298 35.6842 42.0482 34.1746 42.05Z" fill="#6318AF"/>
<path d="M74.8455 40.9736H45.2514C44.8861 40.9736 44.5358 40.8242 44.2774 40.5581C44.0191 40.2921 43.874 39.9312 43.874 39.555C43.874 39.1787 44.0191 38.8179 44.2774 38.5518C44.5358 38.2858 44.8861 38.1363 45.2514 38.1363H74.8455C75.2108 38.1363 75.5611 38.2858 75.8195 38.5518C76.0778 38.8179 76.2229 39.1787 76.2229 39.555C76.2229 39.9312 76.0778 40.2921 75.8195 40.5581C75.5611 40.8242 75.2108 40.9736 74.8455 40.9736Z" fill="#F7E5B7"/>
<path d="M55.0459 34.9445H45.2514C45.0705 34.9445 44.8914 34.9078 44.7243 34.8365C44.5572 34.7652 44.4053 34.6607 44.2774 34.529C44.1495 34.3973 44.0481 34.2409 43.9789 34.0688C43.9096 33.8966 43.874 33.7122 43.874 33.5259C43.874 33.3396 43.9096 33.1551 43.9789 32.983C44.0481 32.8108 44.1495 32.6544 44.2774 32.5227C44.4053 32.391 44.5572 32.2865 44.7243 32.2152C44.8914 32.1439 45.0705 32.1072 45.2514 32.1072H55.0459C55.4112 32.1072 55.7615 32.2567 56.0198 32.5227C56.2781 32.7888 56.4232 33.1496 56.4232 33.5259C56.4232 33.9021 56.2781 34.263 56.0198 34.529C55.7615 34.7951 55.4112 34.9445 55.0459 34.9445Z" fill="#F7E5B7"/>
<path d="M33.8841 38.2481C33.7428 38.2484 33.6053 38.2013 33.4923 38.114L33.4853 38.1086L32.0096 36.9459C31.9411 36.892 31.8836 36.8247 31.8403 36.7479C31.7971 36.671 31.769 36.5862 31.7577 36.4982C31.7463 36.4101 31.7519 36.3207 31.7742 36.2349C31.7964 36.1491 31.8348 36.0687 31.8873 35.9982C31.9397 35.9277 32.0052 35.8686 32.0798 35.8242C32.1545 35.7798 32.2369 35.751 32.3224 35.7394C32.4079 35.7279 32.4947 35.7338 32.578 35.7569C32.6612 35.7799 32.7393 35.8196 32.8076 35.8738L33.7634 36.6287L36.0222 33.5936C36.0745 33.5232 36.1399 33.4642 36.2144 33.4198C36.2889 33.3755 36.3712 33.3466 36.4565 33.335C36.5419 33.3234 36.6286 33.3292 36.7118 33.3522C36.7949 33.3751 36.8729 33.4146 36.9412 33.4686L36.9414 33.4687L36.9274 33.4888L36.9418 33.4687C37.0796 33.5778 37.1698 33.7388 37.1925 33.9163C37.2153 34.0938 37.1687 34.2734 37.0631 34.4155L34.4063 37.9839C34.3448 38.0662 34.2658 38.1327 34.1754 38.1784C34.0849 38.224 33.9854 38.2477 33.8847 38.2474L33.8841 38.2481Z" fill="white"/>
<path d="M19.6367 29.9934C19.3891 29.8855 19.1216 29.8349 18.8529 29.845C18.5842 29.8552 18.321 29.9259 18.0817 30.0522C17.8425 30.1785 17.633 30.3572 17.4681 30.5759C17.3032 30.7946 17.1868 31.0479 17.1272 31.3179L12.9852 32.0487L12.8025 34.7496L18.6377 33.6329C19.0848 33.706 19.5423 33.6076 19.9236 33.3565C20.305 33.1053 20.5836 32.7188 20.7067 32.2702C20.8299 31.8216 20.789 31.342 20.5918 30.9224C20.3945 30.5027 20.0547 30.1722 19.6367 29.9934Z" fill="white"/>
<path d="M12.5223 22.2412C13.1225 22.5189 13.5958 23.0239 13.8442 23.6515C14.0926 24.279 14.097 24.981 13.8564 25.6117L11.4554 31.9064L14.4696 31.3357C14.6578 31.3001 14.8522 31.3365 15.0161 31.4382C15.1801 31.5399 15.3023 31.6998 15.3597 31.8879L15.9606 33.8547C15.992 33.9574 16.0031 34.0656 15.9933 34.1729C15.9835 34.2801 15.953 34.3843 15.9035 34.4792C15.8541 34.5741 15.7867 34.6579 15.7054 34.7256C15.624 34.7933 15.5304 34.8436 15.4299 34.8735L11.5121 36.0386C11.0165 36.186 10.4945 36.213 9.98707 36.1177C9.47962 36.0223 9.00054 35.8071 8.58743 35.4889C8.17432 35.1707 7.83844 34.7583 7.60614 34.2839C7.37384 33.8095 7.25146 33.2861 7.24859 32.7548C7.24724 32.5066 7.27202 32.2589 7.32247 32.0161L8.96865 24.0951C9.04859 23.7105 9.21105 23.3491 9.44413 23.0375C9.6772 22.7259 9.97499 22.4719 10.3157 22.2941C10.6564 22.1164 11.0314 22.0194 11.4132 22.0102C11.795 22.0011 12.174 22.08 12.5223 22.2412Z" fill="#F7E5B7"/>
</svg>
