<svg width="113" height="88" viewBox="0 0 113 88" fill="none" xmlns="http://www.w3.org/2000/svg">
<path d="M45.2173 18.9187H44.8051V7.55031C44.8051 6.68625 44.636 5.83065 44.3076 5.03236C43.9791 4.23407 43.4977 3.50873 42.8907 2.89774C42.2838 2.28676 41.5633 1.8021 40.7703 1.47144C39.9773 1.14077 39.1274 0.970582 38.2691 0.970581H14.3434C12.61 0.970578 10.9475 1.66379 9.72175 2.89773C8.496 4.13166 7.80738 5.80524 7.80737 7.55029V69.9182C7.80737 70.7823 7.97643 71.6379 8.3049 72.4362C8.63336 73.2345 9.11481 73.9598 9.72173 74.5708C10.3287 75.1818 11.0492 75.6664 11.8422 75.9971C12.6352 76.3278 13.4851 76.498 14.3434 76.498H38.269C40.0025 76.498 41.665 75.8047 42.8907 74.5708C44.1165 73.3369 44.8051 71.6633 44.8051 69.9183V27.0109H45.2173V18.9187Z" fill="#3F3D56"/>
<path d="M38.5332 2.68225H35.4101C35.5538 3.03672 35.6086 3.42131 35.5698 3.80213C35.531 4.18295 35.3997 4.54833 35.1876 4.86606C34.9755 5.1838 34.689 5.44414 34.3534 5.62417C34.0178 5.80419 33.6434 5.89836 33.2631 5.89839H19.5564C19.1761 5.89836 18.8017 5.80419 18.4661 5.62417C18.1305 5.44415 17.844 5.1838 17.6319 4.86607C17.4197 4.54833 17.2885 4.18296 17.2497 3.80213C17.2109 3.42131 17.2657 3.03672 17.4093 2.68225H14.4924C13.8514 2.68225 13.2167 2.80935 12.6245 3.05628C12.0323 3.30321 11.4942 3.66515 11.041 4.12143C10.5877 4.5777 10.2282 5.11938 9.98288 5.71553C9.73758 6.31169 9.61133 6.95064 9.61133 7.59591V69.8723C9.61133 70.5176 9.73758 71.1566 9.98288 71.7527C10.2282 72.3489 10.5877 72.8906 11.041 73.3468C11.4942 73.8031 12.0323 74.165 12.6245 74.412C13.2167 74.6589 13.8514 74.786 14.4924 74.786H38.5332C39.1742 74.786 39.8089 74.6589 40.4011 74.412C40.9933 74.165 41.5314 73.8031 41.9846 73.3468C42.4379 72.8906 42.7974 72.3489 43.0427 71.7527C43.288 71.1566 43.4143 70.5176 43.4143 69.8723V7.59591C43.4143 6.95064 43.288 6.31169 43.0427 5.71553C42.7974 5.11938 42.4379 4.5777 41.9846 4.12143C41.5314 3.66515 40.9933 3.30321 40.4011 3.05628C39.8089 2.80935 39.1742 2.68225 38.5332 2.68225Z" fill="white"/>
<path d="M52.8857 76.5078H0.138444C0.101726 76.5078 0.0665126 76.4932 0.0405492 76.4671C0.0145859 76.4411 0 76.4058 0 76.3689C0 76.3321 0.0145859 76.2968 0.0405492 76.2708C0.0665126 76.2447 0.101726 76.2301 0.138444 76.2301H52.8857C52.9224 76.2301 52.9576 76.2447 52.9836 76.2708C53.0095 76.2968 53.0241 76.3321 53.0241 76.3689C53.0241 76.4058 53.0095 76.4411 52.9836 76.4671C52.9576 76.4932 52.9224 76.5078 52.8857 76.5078Z" fill="#F7E5B7"/>
<path d="M26.5116 49.1477C32.9684 49.1477 38.2027 43.8784 38.2027 37.3785C38.2027 30.8785 32.9684 25.6093 26.5116 25.6093C20.0548 25.6093 14.8206 30.8785 14.8206 37.3785C14.8206 43.8784 20.0548 49.1477 26.5116 49.1477Z" fill="#6318AF"/>
<path d="M25.3535 41.8679C25.0904 41.8684 24.8344 41.7827 24.624 41.6239L24.6109 41.614L21.8634 39.4982C21.7361 39.4 21.6293 39.2775 21.5491 39.1377C21.4689 38.998 21.4168 38.8437 21.3958 38.6837C21.3748 38.5236 21.3853 38.361 21.4267 38.2051C21.4682 38.0491 21.5397 37.903 21.6372 37.7748C21.7348 37.6467 21.8565 37.5392 21.9953 37.4585C22.1341 37.3777 22.2874 37.3253 22.4464 37.3041C22.6053 37.283 22.7669 37.2936 22.9218 37.3353C23.0767 37.377 23.2219 37.449 23.3491 37.5472L25.1288 38.9211L29.3342 33.398C29.4317 33.2699 29.5533 33.1625 29.6921 33.0817C29.8309 33.001 29.9841 32.9486 30.143 32.9274C30.3019 32.9063 30.4633 32.9169 30.6182 32.9586C30.773 33.0003 30.9182 33.0723 31.0454 33.1704L31.0457 33.1707L31.0196 33.2072L31.0464 33.1707C31.303 33.3693 31.4709 33.6622 31.5132 33.9852C31.5556 34.3082 31.4689 34.6349 31.2722 34.8937L26.3257 41.3871C26.2113 41.5367 26.0641 41.6578 25.8957 41.7409C25.7273 41.8241 25.5421 41.867 25.3545 41.8665L25.3535 41.8679Z" fill="white"/>
<path d="M96.1139 77.6659C96.2561 77.4344 96.4236 77.2196 96.6131 77.0255C96.6913 76.9439 96.7737 76.867 96.8587 76.7922C97.3756 76.329 98.0058 76.0128 98.6843 75.8761C99.3629 75.7394 100.065 75.787 100.72 76.0142C101.374 76.2414 101.956 76.6399 102.407 77.1687C102.857 77.6975 103.159 78.3376 103.283 79.0231C103.854 76.8974 102.367 74.8036 100.873 73.1953C99.3779 71.5876 97.669 69.8238 97.6776 67.6208C97.6818 66.3949 98.2775 65.3013 99.1768 64.4905C99.2046 64.466 99.2323 64.4414 99.2606 64.4177C100.348 63.4797 101.746 62.9891 103.177 63.0438C105.835 63.1871 108.156 64.9855 109.768 67.1186C112.362 70.5509 113.499 75.3688 111.682 79.276C110.085 82.7123 106.678 84.7529 103.201 86.3934C102.715 86.6225 102.231 86.8447 101.747 87.06C101.744 87.0609 101.74 87.0632 101.737 87.064C101.714 87.0743 101.69 87.0846 101.669 87.0952C101.569 87.1396 101.469 87.1839 101.37 87.2277L101.416 87.2579L101.559 87.3511C101.509 87.3208 101.46 87.2915 101.411 87.2613C101.396 87.2521 101.38 87.2435 101.366 87.2344C99.6578 86.2028 97.9262 85.1115 96.7464 83.501C95.5227 81.8288 95.0308 79.4337 96.1139 77.6659Z" fill="#F7E5B7"/>
<path d="M107.509 73.7823C107.887 74.6483 108.138 75.5652 108.253 76.5041C108.344 77.3413 108.31 78.1875 108.152 79.0145C107.813 80.7141 107.073 82.3068 105.995 83.6586C105.182 84.685 104.243 85.6037 103.201 86.3931C102.716 86.6222 102.231 86.8444 101.748 87.0597C101.744 87.0605 101.741 87.0628 101.738 87.0637C101.714 87.074 101.691 87.0843 101.669 87.0949C101.569 87.1392 101.47 87.1836 101.371 87.2274L101.416 87.2575L101.559 87.3507C101.51 87.3205 101.461 87.2912 101.411 87.261C101.397 87.2518 101.381 87.2432 101.366 87.234C101.742 85.9106 101.797 84.5157 101.527 83.1664C101.257 81.817 100.67 80.5524 99.8147 79.4786C98.9546 78.4183 97.8579 77.5777 96.6138 77.0252C96.6919 76.9436 96.7743 76.8667 96.8593 76.7919C97.3385 77.0134 97.7974 77.2771 98.2304 77.58C99.7793 78.6577 100.942 80.2087 101.547 82.0036C102.088 83.6319 102.155 85.3815 101.742 87.0471C101.828 86.9907 101.914 86.9328 101.997 86.8752C103.588 85.7951 105.055 84.498 106.159 82.9072C107.112 81.5629 107.721 80.0033 107.934 78.3659C108.146 76.5773 107.701 74.8184 106.908 73.2225C106.032 71.5151 104.928 69.9363 103.627 68.5299C102.321 67.0847 100.843 65.806 99.2281 64.7221C99.1918 64.6973 99.1662 64.6595 99.1568 64.6163C99.1473 64.5732 99.1547 64.528 99.1775 64.4902C99.1948 64.4558 99.2249 64.4296 99.2613 64.4174C99.2797 64.4127 99.299 64.4122 99.3177 64.416C99.3364 64.4198 99.354 64.4278 99.3692 64.4394C99.5686 64.5734 99.7663 64.7085 99.9616 64.8476C101.588 66.0071 103.065 67.3655 104.359 68.8916C105.61 70.3626 106.747 71.9969 107.509 73.7823Z" fill="white"/>
<path d="M72.6892 6.43556C74.0604 6.43556 75.172 5.31651 75.172 3.9361C75.172 2.55569 74.0604 1.43665 72.6892 1.43665C71.3179 1.43665 70.2063 2.55569 70.2063 3.9361C70.2063 5.31651 71.3179 6.43556 72.6892 6.43556Z" fill="#F7E5B7"/>
<path d="M103.562 39.884C104.398 39.884 105.076 39.2018 105.076 38.3602C105.076 37.5186 104.398 36.8363 103.562 36.8363C102.726 36.8363 102.049 37.5186 102.049 38.3602C102.049 39.2018 102.726 39.884 103.562 39.884Z" fill="#F7E5B7"/>
<path d="M59.2598 44.0654C60.0959 44.0654 60.7736 43.3832 60.7736 42.5416C60.7736 41.7 60.0959 41.0177 59.2598 41.0177C58.4238 41.0177 57.7461 41.7 57.7461 42.5416C57.7461 43.3832 58.4238 44.0654 59.2598 44.0654Z" fill="#F7E5B7"/>
<path d="M60.1143 87.5178H112.861C112.898 87.5178 112.933 87.5032 112.959 87.4771C112.985 87.4511 113 87.4158 113 87.379C113 87.3421 112.985 87.3068 112.959 87.2808C112.933 87.2547 112.898 87.2401 112.861 87.2401H60.1143C60.0776 87.2401 60.0423 87.2547 60.0164 87.2808C59.9904 87.3068 59.9758 87.3421 59.9758 87.379C59.9758 87.4158 59.9904 87.4511 60.0164 87.4771C60.0423 87.5032 60.0776 87.5178 60.1143 87.5178Z" fill="#F7E5B7"/>
<path d="M107.041 14.4388C107.11 13.9438 106.997 13.4404 106.722 13.024C106.447 12.6076 106.03 12.3071 105.55 12.1796C105.07 12.052 104.56 12.1061 104.117 12.3318C103.673 12.5574 103.328 12.9389 103.146 13.4038L98.8652 18.3437L100.121 21.8748L104.426 16.1028C104.707 16.1934 105.004 16.2209 105.296 16.1833C105.589 16.1457 105.87 16.0441 106.119 15.8854C106.369 15.7268 106.58 15.515 106.74 15.2651C106.899 15.0151 107.002 14.7331 107.041 14.4388Z" fill="white"/>
<path d="M89.2988 33.6592L103.507 18.3943L101.591 15.327L83.7698 30.4993L89.2988 33.6592Z" fill="#6318AF"/>
<path d="M86.1283 24.3848C88.8809 24.3848 91.1123 22.1385 91.1123 19.3675C91.1123 16.5965 88.8809 14.3502 86.1283 14.3502C83.3757 14.3502 81.1443 16.5965 81.1443 19.3675C81.1443 22.1385 83.3757 24.3848 86.1283 24.3848Z" fill="#2F2E41"/>
<path d="M86.5286 16.5326C87.601 15.4378 88.8989 14.593 90.3307 14.0576C91.2498 13.7148 92.2501 13.503 93.211 13.6977C94.1719 13.8923 95.0806 14.5615 95.3486 15.5106C95.5678 16.2866 95.3415 17.1222 95.0013 17.8527C94.6611 18.5833 94.207 19.2607 93.9319 20.0185C93.6512 20.7917 93.5668 21.6233 93.6863 22.4377C93.8058 23.2521 94.1255 24.0235 94.6163 24.682C95.1071 25.3405 95.7536 25.8651 96.4969 26.2083C97.2402 26.5515 98.0569 26.7024 98.8728 26.6472C97.9287 26.7747 97.0585 27.2213 96.1357 27.459C95.2129 27.6968 94.1237 27.6806 93.4379 27.0151C92.7123 26.311 92.6978 25.1661 92.7329 24.1521C92.785 22.6448 92.8372 21.1376 92.8894 19.6303C92.916 18.8616 92.9387 18.0683 92.6633 17.3508C92.3879 16.6334 91.7335 16.0051 90.9695 16.0117C90.3904 16.0166 89.8779 16.3697 89.4135 16.718C88.9491 17.0662 88.4577 17.4378 87.8809 17.4896C87.3041 17.5414 86.6455 17.1117 86.6887 16.5304L86.5286 16.5326Z" fill="#2F2E41"/>
<path d="M67.1977 53.0563C66.7192 53.1901 66.2086 53.1426 65.7626 52.9227C65.3166 52.7029 64.9662 52.326 64.7778 51.8634C64.5895 51.4009 64.5762 50.8848 64.7405 50.4131C64.9048 49.9413 65.2353 49.5466 65.6694 49.3038L69.9751 44.3864L73.6168 45.1784L68.4948 50.2289C68.6207 50.4974 68.6866 50.7904 68.6878 51.0873C68.689 51.3843 68.6256 51.6779 68.5019 51.9474C68.3783 52.217 68.1974 52.456 67.9721 52.6476C67.7467 52.8392 67.4824 52.9787 67.1977 53.0563Z" fill="white"/>
<path d="M81.3637 35.4512L70.6322 49.0118L67.3611 47.4999L79.9747 27.7311L81.3637 35.4512Z" fill="#6318AF"/>
<path d="M72.7998 76.3984L70.2422 76.358L70.5498 85.1336H72.7994L72.7998 76.3984Z" fill="white"/>
<path d="M73.3748 84.3943L68.9444 84.3942H68.9442C68.1954 84.3942 67.4773 84.6937 66.9479 85.2267C66.4184 85.7597 66.1209 86.4826 66.1208 87.2364V87.3287L73.3746 87.329L73.3748 84.3943Z" fill="#2F2E41"/>
<path d="M89.7353 74.0709L86.9414 75.8766L92.5301 82.6451L94.4232 81.4215L89.7353 74.0709Z" fill="white"/>
<path d="M94.5082 80.4872L90.78 82.8967L90.7798 82.8968C90.1498 83.3041 89.7062 83.9466 89.5467 84.6831C89.3872 85.4196 89.5249 86.1897 89.9294 86.8241L89.979 86.9018L96.0831 82.9567L94.5082 80.4872Z" fill="#2F2E41"/>
<path d="M90.7292 47.2747C90.7292 47.2747 84.5215 26.5188 82.5265 26.2383C80.5315 25.9578 77.3171 31.5641 77.3171 31.5641C73.1495 36.917 68.8521 54.2563 68.8521 54.2563C68.8521 54.2563 76.0161 54.7076 81.253 57.5124C86.4899 60.3173 92.6701 57.3704 92.6701 57.3704L90.7292 47.2747Z" fill="#6318AF"/>
<path opacity="0.1" d="M90.7292 47.2746C90.7292 47.2746 84.5215 26.5187 82.5265 26.2382C80.5315 25.9577 78.1335 31.6208 78.1335 31.6208C76.0568 40.2617 68.8521 54.2562 68.8521 54.2562C68.8521 54.2562 76.0161 54.7075 81.253 57.5123C86.4899 60.3172 92.6701 57.3703 92.6701 57.3703L90.7292 47.2746Z" fill="black"/>
<path d="M85.6368 41.0645V51.4942L86.8561 66.6024L92.9476 78.0307L90.0403 80.1212L81.7336 69.2504L78.4482 58.4564L73.2885 82.3511L69.4121 82.0724L72.1043 48.9428L77.213 39.6176L85.6368 41.0645Z" fill="#2F2E41"/>
<path d="M79.3777 30.977C77.4395 32.9281 79.2393 35.0187 79.2393 35.0187L77.0242 40.036L85.7462 42.4052L88.7942 28.6943L86.7175 26.4644C82.5642 26.3251 82.5619 26.2384 82.5619 26.2384C81.8342 26.9553 79.3777 30.977 79.3777 30.977Z" fill="#F7E5B7"/>
<path d="M89.1464 27.2734C88.7503 26.9791 88.3001 26.7668 87.8219 26.6488C87.3437 26.5308 86.8469 26.5096 86.3605 26.5862C85.8741 26.6629 85.4076 26.8359 84.988 27.0953C84.5685 27.3548 84.2042 27.6954 83.9164 28.0975C81.7237 31.1709 79.6963 36.1337 82.4898 42.3232C86.9752 52.2616 90.8786 57.3492 92.4654 57.3487C92.5347 57.3493 92.6036 57.3384 92.6693 57.3164C93.6461 56.9828 95.0583 55.319 95.314 53.8528C95.4055 53.3279 95.3837 52.5969 94.7603 52.095C92.9694 50.653 89.7544 46.1632 88.7515 40.2536C88.1973 36.9883 89.2721 34.0138 90.2714 32.0936C90.6934 31.2991 90.8169 30.378 90.6192 29.4993C90.4214 28.6205 89.9157 27.843 89.1946 27.3092L89.1464 27.2734Z" fill="#6318AF"/>
<path d="M86.3838 23.8919C88.1617 22.9135 88.8151 20.6694 87.8432 18.8797C86.8713 17.0899 84.6421 16.4321 82.8642 17.4105C81.0863 18.3889 80.4329 20.6329 81.4048 22.4227C82.3767 24.2125 84.6058 24.8703 86.3838 23.8919Z" fill="white"/>
<path d="M79.4651 20.3722H84.7627L84.8171 19.6065L85.0887 20.3722H85.9044L86.0121 18.8547L86.5504 20.3722H88.1288V20.297C88.1276 19.2405 87.7102 18.2276 86.9681 17.4806C86.226 16.7335 85.2199 16.3133 84.1704 16.3121H83.4235C82.374 16.3133 81.3679 16.7335 80.6258 17.4806C79.8837 18.2276 79.4663 19.2405 79.4651 20.297V20.3722Z" fill="#2F2E41"/>
<path d="M87.3278 23.1238L89.5886 22.3853V16.8585H85.3184L85.4241 16.9648C86.895 18.4436 88.5309 23.6903 87.3278 23.1238Z" fill="#2F2E41"/>
</svg>
